<svg xmlns="http://www.w3.org/2000/svg" width="200" height="200">
 <!-- Created with Method Draw - http://github.com/duopixel/Method-Draw/ -->

 <g>
  <title>background</title>
  <rect fill="none" id="canvas_background" height="202" width="202" y="-1" x="-1"/>
  <g display="none" overflow="visible" y="0" x="0" height="100%" width="100%" id="canvasGrid">
   <rect fill="url(#gridpattern)" stroke-width="0" y="0" x="0" height="100%" width="100%"/>
  </g>
 </g>
 <g>
  <title>Layer 1</title>
  <ellipse stroke="#000" ry="90.499997" rx="90.499997" id="svg_10" cy="100.000003" cx="100.000003" stroke-width="0" fill="#fff"/>
  <g stroke="null" id="svg_9">
   <g stroke="null" transform="matrix(0.4941378324001368,0,0,0.4941378324001368,-252.81912365211286,-444.97589694468354) " id="svg_6">
    <path fill-rule="evenodd" fill="#3F51B5" d="m705.047332,903.144805c-0.11,0.11 -3.08,0.413 -6.6,0.672c-6.089,0.449 -17.937,1.969 -21.8,2.796c-5.598,1.2 -9.654,2.122 -11.6,2.637c-6.593,1.745 -9.885,2.672 -10.6,2.985c-0.44,0.192 -1.25,0.468 -1.8,0.614c-3.102,0.818 -15.187,5.455 -21,8.056c-4.02,1.799 -15.524,7.798 -18.532,9.663c-1.832,1.137 -3.397,2.067 -3.476,2.067c-0.976,0 -18.375,12.438 -22.592,16.149c-0.55,0.484 -2.8,2.428 -5,4.319c-10.392,8.935 -21.359,21.03 -30.107,33.207c-3.827,5.327 -9.636,14.482 -12.644,19.925c-2.606,4.717 -9.449,18.783 -9.449,19.423c0,0.121 -0.339,0.976 -0.752,1.899c-0.65,1.45 -3.764,9.97 -5.437,14.878c-1.343,3.939 -4.715,16.963 -5.386,20.8c-0.192,1.1 -0.732,4.16 -1.199,6.8c-2.296,12.98 -3.404,32.95 -2.441,44c1.124,12.892 1.628,17.443 2.416,21.8c0.458,2.53 0.997,5.59 1.199,6.8c0.836,5.029 4.293,17.47 7.058,25.4c0.536,1.54 1.247,3.61 1.579,4.6c0.332,0.99 0.766,2.16 0.965,2.6c0.199,0.44 0.831,1.97 1.404,3.4c0.574,1.43 1.482,3.55 2.018,4.711c0.537,1.161 0.976,2.227 0.976,2.369c0,1.014 10.368,20.126 13.193,24.32c0.593,0.88 1.602,2.41 2.242,3.4c0.641,0.99 1.307,1.98 1.481,2.2c0.173,0.22 1.592,2.2 3.152,4.4c11.41,16.093 29.529,34.16 45.332,45.203c1.54,1.076 2.86,2.1 2.933,2.277c0.074,0.176 0.3,0.32 0.503,0.32c0.204,0 1.791,0.979 3.527,2.174c7.302,5.03 21.681,12.723 31.037,16.606c2.2,0.913 4.36,1.829 4.8,2.036c1.316,0.62 8.471,3.145 13.6,4.8c11.869,3.831 24.247,6.459 38.6,8.196c20.065,2.429 47.963,0.619 68,-4.411c1.21,-0.304 3.37,-0.844 4.8,-1.201c3.151,-0.786 12.46,-3.623 14.4,-4.389c0.77,-0.303 3.65,-1.393 6.4,-2.421c2.75,-1.028 6.117,-2.391 7.483,-3.03c1.366,-0.638 2.601,-1.16 2.744,-1.16c0.325,0 11.336,-5.561 13.773,-6.956c0.99,-0.567 2.16,-1.221 2.6,-1.454c0.872,-0.463 0.787,-0.412 6,-3.573c20.515,-12.44 38.627,-28.906 54.798,-49.817c1.222,-1.579 3.162,-4.322 6.651,-9.4c5.59,-8.136 13.04,-21.675 16.73,-30.4c0.697,-1.65 1.432,-3.36 1.633,-3.8c0.838,-1.833 3.76,-9.659 5.154,-13.8c0.739,-2.196 1.664,-5.306 3.155,-10.6c2.143,-7.607 4.632,-19.839 5.109,-25.1c0.154,-1.705 0.427,-3.1 0.607,-3.1c0.179,0 0.303,-0.765 0.275,-1.7c-0.029,-0.935 0.182,-4.94 0.467,-8.9c0.542,-7.506 0.336,-26.582 -0.36,-33.4c-0.541,-5.299 -1.558,-12.778 -1.789,-13.152c-0.115,-0.185 -0.485,-1.937 -0.823,-3.893c-1.876,-10.849 -7.366,-29.905 -10.591,-36.755c-0.207,-0.44 -1.11,-2.556 -2.006,-4.703c-21.033,-50.364 -67.145,-93.59 -117.41,-110.06c-1.1,-0.36 -2.36,-0.817 -2.8,-1.014c-2.451,-1.101 -19.014,-5.552 -23.8,-6.397c-1.21,-0.214 -4.765,-0.84 -7.9,-1.393c-3.134,-0.552 -7.364,-1.115 -9.4,-1.251c-2.035,-0.136 -3.97,-0.338 -4.3,-0.45c-1.227,-0.416 -26.833,-1.189 -27.2,-0.822m20.8,79.831c24.221,7.157 38.465,39.736 31.155,71.259c-2.891,12.467 -9.996,24.505 -18.199,30.834l-2.241,1.729l1.742,1.515c3.776,3.284 9.99,8.001 14.943,11.343c2.86,1.931 6.91,4.685 9,6.123c16.568,11.391 20.842,14.32 26.6,18.223c6.992,4.74 10.01,6.845 11.8,8.227c3.082,2.381 11.413,6.803 14.253,7.565c21.82,5.861 37.838,2.16 54.788,-12.661c4.933,-4.314 13.126,-13.575 15.894,-17.967c3.385,-5.37 5.656,-8.544 5.803,-8.111c0.244,0.723 -0.74,16.735 -1.536,24.98c-2.716,28.14 -7.3,46.043 -15.67,61.2c-16.383,29.668 -32.921,38.708 -55.753,30.476c-10.384,-3.744 -23.176,-14.739 -35.458,-30.476c-2.942,-3.77 -22.804,-28.598 -29.758,-37.2c-0.711,-0.88 -6.478,-8.08 -12.816,-16c-6.337,-7.92 -11.978,-14.939 -12.535,-15.597c-3.129,-3.703 -19.507,-20.59 -30.067,-31.003c-9.306,-9.177 -11.76,-12.208 -14.977,-18.497c-12.601,-24.635 -8.574,-57.765 9.201,-75.698c6.223,-6.279 11.16,-8.98 20.431,-11.177c1.883,-0.446 10.873,0.166 13.4,0.913m-31.594,124.92c9.76,10.869 9.923,11.069 9.331,11.485c-0.763,0.537 -11.051,13.14 -20.137,24.667c-1.43,1.815 -10.509,13.174 -20.176,25.243c-9.667,12.069 -18.934,23.639 -20.593,25.711c-24.306,30.348 -51.341,37.136 -71.022,17.833c-17.419,-17.086 -26.94,-40.496 -31.232,-76.8c-0.988,-8.357 -2.756,-31.754 -2.424,-32.086c0.173,-0.174 3.203,4.368 6.603,9.902c0.966,1.571 2.946,4.154 4.4,5.739c1.454,1.585 3.723,4.117 5.041,5.627c6.79,7.776 18.847,15.857 28.003,18.769c14.109,4.487 33.207,1.153 46.459,-8.112c2.761,-1.93 15.058,-10.387 19.541,-13.438c1.98,-1.348 7.02,-4.795 11.2,-7.659c4.18,-2.864 9.94,-6.8 12.8,-8.747c2.86,-1.946 6.73,-4.661 8.6,-6.032c1.87,-1.372 3.583,-2.509 3.806,-2.528c0.223,-0.019 4.633,4.672 9.8,10.426" id="svg_7"/>
   </g>
  </g>
 </g>
</svg>
